<?xml version="1.0" standalone="no"?>
<!DOCTYPE svg PUBLIC "-//W3C//DTD SVG 1.1//EN" "http://www.w3.org/Graphics/SVG/1.1/DTD/svg11.dtd">
<svg xmlns="http://www.w3.org/2000/svg" width="599" height="579" viewBox="0 0 599 579" fill="none">
<path d="M195 66.623L195.5 66.0518V170.51L278.617 71.5615L278.767 71.3828H329.081L328.381 72.2061L232.654 184.883L327.882 297.561L328.577 298.383H279.269L279.119 298.206L195.5 199.743V321.316C224.376 346.288 261.935 361.383 303 361.383C315.01 361.383 326.719 360.09 338 357.639V387.249C326.645 389.307 314.948 390.383 303 390.383C195.304 390.383 108 303.078 108 195.383C108 127.631 142.554 67.951 195 33V66.623ZM156 119.916C144.493 142.558 138 168.207 138 195.383C138 222.559 144.492 248.21 156 270.853V119.916Z" fill="#1A2766"/>
<path d="M303 0C389.021 0 462.029 55.7 487.934 133H456.104C431.688 72.0327 372.34 29 303 29C267.19 29 234.045 40.4784 207 59.9756V25.2314C235.341 9.171 268.099 0 303 0Z" fill="#003347"/>
<path d="M303 0C389.021 0 462.029 55.7 487.934 133H456.104C431.688 72.0327 372.34 29 303 29C267.19 29 234.045 40.4784 207 59.9756V25.2314C235.341 9.171 268.099 0 303 0Z" fill="#AE1B1E"/>
<path d="M490.5 147.5H292.5L256 184.5H352.5V383.5L389.5 343.5V184.5H455L490.5 147.5Z" fill="#AE1B1E"/>
<path d="M90.8943 479.64L90.0303 461.688L122.19 427.8H139.47L110.478 459L101.838 468.216L90.8943 479.64ZM76.9743 495V427.8H92.4303V495H76.9743ZM122.958 495L99.0543 465.72L109.23 454.68L141.102 495H122.958ZM155.311 495L185.263 427.8H200.623L230.671 495H214.351L189.775 435.672H195.919L171.247 495H155.311ZM170.287 480.6L174.415 468.792H208.975L213.199 480.6H170.287ZM256.843 495V427.8H269.707L298.315 475.224H291.499L319.627 427.8H332.395L332.587 495H317.995L317.899 450.168H320.587L298.123 487.896H291.115L268.171 450.168H271.435V495H256.843ZM367.731 495V427.8H380.595L420.243 476.184H414.003V427.8H429.363V495H416.595L376.851 446.616H383.091V495H367.731ZM455.63 495L485.582 427.8H500.942L530.99 495H514.67L490.094 435.672H496.238L471.566 495H455.63ZM470.606 480.6L474.734 468.792H509.294L513.518 480.6H470.606Z" fill="#1A2766"/>
<path d="M162.402 561V533.736H151.65V527.4H180.93V533.736H170.178V561H162.402ZM194.714 561V527.4H209.258C212.266 527.4 214.858 527.896 217.034 528.888C219.21 529.848 220.89 531.24 222.074 533.064C223.258 534.888 223.85 537.064 223.85 539.592C223.85 542.088 223.258 544.248 222.074 546.072C220.89 547.864 219.21 549.24 217.034 550.2C214.858 551.16 212.266 551.64 209.258 551.64H199.034L202.49 548.232V561H194.714ZM216.074 561L207.674 548.808H215.978L224.474 561H216.074ZM202.49 549.096L199.034 545.448H208.826C211.226 545.448 213.018 544.936 214.202 543.912C215.386 542.856 215.978 541.416 215.978 539.592C215.978 537.736 215.386 536.296 214.202 535.272C213.018 534.248 211.226 533.736 208.826 533.736H199.034L202.49 530.04V549.096ZM235.195 561L250.171 527.4H257.851L272.875 561H264.715L252.427 531.336H255.499L243.163 561H235.195ZM242.683 553.8L244.747 547.896H262.027L264.139 553.8H242.683ZM285.961 561V527.4H301.225C304.873 527.4 308.089 528.104 310.873 529.512C313.657 530.888 315.833 532.824 317.401 535.32C318.969 537.816 319.753 540.776 319.753 544.2C319.753 547.592 318.969 550.552 317.401 553.08C315.833 555.576 313.657 557.528 310.873 558.936C308.089 560.312 304.873 561 301.225 561H285.961ZM293.737 554.616H300.841C303.081 554.616 305.017 554.2 306.649 553.368C308.313 552.504 309.593 551.288 310.489 549.72C311.417 548.152 311.881 546.312 311.881 544.2C311.881 542.056 311.417 540.216 310.489 538.68C309.593 537.112 308.313 535.912 306.649 535.08C305.017 534.216 303.081 533.784 300.841 533.784H293.737V554.616ZM342.369 540.936H358.545V546.984H342.369V540.936ZM342.945 554.76H361.233V561H335.217V527.4H360.609V533.64H342.945V554.76ZM377.02 561V527.4H391.564C394.572 527.4 397.164 527.896 399.34 528.888C401.516 529.848 403.196 531.24 404.38 533.064C405.564 534.888 406.156 537.064 406.156 539.592C406.156 542.088 405.564 544.248 404.38 546.072C403.196 547.864 401.516 549.24 399.34 550.2C397.164 551.16 394.572 551.64 391.564 551.64H381.34L384.796 548.232V561H377.02ZM398.38 561L389.98 548.808H398.284L406.78 561H398.38ZM384.796 549.096L381.34 545.448H391.132C393.532 545.448 395.324 544.936 396.508 543.912C397.692 542.856 398.284 541.416 398.284 539.592C398.284 537.736 397.692 536.296 396.508 535.272C395.324 534.248 393.532 533.736 391.132 533.736H381.34L384.796 530.04V549.096ZM432.957 561.576C430.269 561.576 427.693 561.224 425.229 560.52C422.765 559.784 420.781 558.84 419.277 557.688L421.917 551.832C423.357 552.856 425.053 553.704 427.005 554.376C428.989 555.016 430.989 555.336 433.005 555.336C434.541 555.336 435.773 555.192 436.701 554.904C437.661 554.584 438.365 554.152 438.813 553.608C439.261 553.064 439.485 552.44 439.485 551.736C439.485 550.84 439.133 550.136 438.429 549.624C437.725 549.08 436.797 548.648 435.645 548.328C434.493 547.976 433.213 547.656 431.805 547.368C430.429 547.048 429.037 546.664 427.629 546.216C426.253 545.768 424.989 545.192 423.837 544.488C422.685 543.784 421.741 542.856 421.005 541.704C420.301 540.552 419.949 539.08 419.949 537.288C419.949 535.368 420.461 533.624 421.485 532.056C422.541 530.456 424.109 529.192 426.189 528.264C428.301 527.304 430.941 526.824 434.109 526.824C436.221 526.824 438.301 527.08 440.349 527.592C442.397 528.072 444.205 528.808 445.773 529.8L443.373 535.704C441.805 534.808 440.237 534.152 438.669 533.736C437.101 533.288 435.565 533.064 434.061 533.064C432.557 533.064 431.325 533.24 430.365 533.592C429.405 533.944 428.717 534.408 428.301 534.984C427.885 535.528 427.677 536.168 427.677 536.904C427.677 537.768 428.029 538.472 428.733 539.016C429.437 539.528 430.365 539.944 431.517 540.264C432.669 540.584 433.933 540.904 435.309 541.224C436.717 541.544 438.109 541.912 439.485 542.328C440.893 542.744 442.173 543.304 443.325 544.008C444.477 544.712 445.405 545.64 446.109 546.792C446.845 547.944 447.213 549.4 447.213 551.16C447.213 553.048 446.685 554.776 445.629 556.344C444.573 557.912 442.989 559.176 440.877 560.136C438.797 561.096 436.157 561.576 432.957 561.576Z" fill="#AE1B1E"/>
</svg>
